<svg width="20" height="20" viewBox="0 0 20 20" fill="none" xmlns="http://www.w3.org/2000/svg">
<path d="M10.0001 18.3334C5.39758 18.3334 1.66675 14.6026 1.66675 10.0001C1.66675 5.39758 5.39758 1.66675 10.0001 1.66675C13.7317 1.66675 16.8551 4.11925 17.9167 7.50008H15.8334" stroke="black" stroke-width="1.5" stroke-linecap="round" stroke-linejoin="round"/>
<path d="M10 6.66675V10.0001L11.6667 11.6667M18.2958 10.8334C18.3208 10.5584 18.3333 10.2806 18.3333 10.0001M12.5 18.3334C12.7834 18.2395 13.0616 18.1305 13.3333 18.0067M17.325 14.1667C17.4867 13.8567 17.6297 13.5362 17.7542 13.2051M15.16 16.8576C15.4478 16.6198 15.7192 16.3637 15.9742 16.0892" stroke="black" stroke-width="1.5" stroke-linecap="round" stroke-linejoin="round"/>
</svg>
